<svg width="20" height="21" viewBox="0 0 20 21" fill="none" xmlns="http://www.w3.org/2000/svg">
<g clip-path="url(#clip0)">
<path d="M17.0711 2.99112C15.1823 1.08921 12.6711 0.0418091 10 0.0418091C7.32887 0.0418091 4.81762 1.08925 2.92891 2.99112C1.04016 4.89303 0 7.42178 0 10.1115C0 12.8012 1.04016 15.3299 2.92891 17.2318C4.81762 19.1337 7.32887 20.1812 10 20.1812C12.6711 20.1812 15.1823 19.1338 17.0711 17.2318C18.9598 15.3299 20 12.8012 20 10.1115C20 7.42178 18.9598 4.89307 17.0711 2.99112ZM10 19.0011C5.13215 19.0011 1.17187 15.0133 1.17187 10.1115C1.17187 5.20972 5.13215 1.22185 10 1.22185C14.8679 1.22185 18.8281 5.20972 18.8281 10.1115C18.8281 15.0133 14.8679 19.0011 10 19.0011Z" fill="#FFF2E7"/>
<path d="M15.6596 9.62061L8.12835 4.56473C7.94854 4.44405 7.71741 4.43276 7.52686 4.53546C7.33635 4.63813 7.21741 4.83806 7.21741 5.05566L7.21741 15.1673C7.21741 15.3849 7.33635 15.5848 7.52686 15.6875C7.6135 15.7342 7.7085 15.7573 7.80331 15.7573C7.91698 15.7573 8.03034 15.724 8.12835 15.6582L15.6596 10.6024C15.8226 10.493 15.9205 10.3088 15.9205 10.1115C15.9205 9.91429 15.8226 9.73004 15.6596 9.62061ZM8.38924 14.0649V6.15818L14.2782 10.1115L8.38924 14.0649Z" fill="#FFF2E7"/>
</g>
<defs>
<clipPath id="clip0">
<rect width="20" height="20.1394" fill="white" transform="translate(0 0.0418091)"/>
</clipPath>
</defs>
</svg>
