<svg width="137" height="70" viewBox="0 0 137 70" fill="none" xmlns="http://www.w3.org/2000/svg">
<path d="M117.869 34.532L116.76 29.7689L115.136 34.0606L103.729 59.2651H97.3124L86.1822 34.0606L84.5979 29.6944L83.3699 34.5568L74.4184 59.2651H66.774L80.7558 23.1452H87.6873L99.5702 49.4663L100.48 52.22L101.392 49.4663L113.71 23.1452H120.642L134.584 59.2651H126.979L117.869 34.532Z" fill="#E1D5CB"/>
<path d="M19.131 35.468L20.2401 40.2312L21.864 35.9394L33.2713 10.7346H39.6878L50.8178 35.9394L52.4022 40.3056L53.6301 35.4433L62.5816 10.7346H70.226L56.2442 46.8548H49.3127L37.4301 20.5337L36.5192 17.7801L35.6081 20.5337L23.2898 46.8548H16.3584L2.41614 10.7346H10.021L19.131 35.468Z" fill="#E1D5CB"/>
<path d="M21.3817 57.8686L23.2124 53.3093H24.8407L22.0682 59.2742H20.7479L18.433 54.7537L16.1797 59.2742H14.8594L12.0956 53.3093H13.7152L15.59 57.7748L17.808 53.3093H19.1195L21.3817 57.8686ZM26.073 56.2366C26.073 55.6523 26.255 55.1267 26.6188 54.66C26.9885 54.1932 27.499 53.833 28.1503 53.5794C28.8075 53.3258 29.5557 53.199 30.3948 53.199C31.6916 53.199 32.739 53.4802 33.5371 54.0425C34.341 54.6048 34.7429 55.3527 34.7429 56.2862V56.3579C34.7429 56.9388 34.5639 57.4604 34.206 57.9233C33.8539 58.3828 33.3464 58.7413 32.6833 58.9987C32.0261 59.2556 31.2691 59.3843 30.4124 59.3843C29.1214 59.3843 28.074 59.1031 27.2701 58.5409C26.472 57.9786 26.073 57.2346 26.073 56.3083V56.2366ZM27.7102 56.3579C27.7102 57.0195 27.9537 57.5507 28.4408 57.951C28.9337 58.3518 29.5908 58.5522 30.4124 58.5522C31.2398 58.5522 31.8969 58.3501 32.384 57.9453C32.8711 57.5377 33.1145 56.9681 33.1145 56.2366C33.1145 55.5824 32.8651 55.0532 32.3664 54.6489C31.8735 54.241 31.2163 54.037 30.3948 54.037C29.5908 54.037 28.9424 54.2373 28.4496 54.6379C27.9567 55.0385 27.7102 55.6118 27.7102 56.3579ZM41.3883 54.2244C41.1419 54.1987 40.875 54.1858 40.5873 54.1858C39.5195 54.1858 38.7947 54.4707 38.4133 55.0403V59.2742H36.785V53.3093H38.3693L38.3957 53.9984C38.9297 53.4655 39.6867 53.199 40.6666 53.199C40.9835 53.199 41.224 53.2248 41.3883 53.2762V54.2244ZM44.6626 59.2742H43.0343V50.8065H44.6626V59.2742ZM46.8808 56.2421C46.8808 55.327 47.227 54.5919 47.9194 54.037C48.6118 53.4784 49.5184 53.199 50.6392 53.199C51.7541 53.199 52.6372 53.4379 53.2885 53.9157V50.8065H54.9169V59.2742H53.4205L53.3413 58.6346C52.69 59.1348 51.7834 59.3843 50.6216 59.3843C49.5184 59.3843 48.6177 59.1015 47.9194 58.5352C47.227 57.9696 46.8808 57.2306 46.8808 56.3193V56.2421ZM48.5091 56.3579C48.5091 57.0342 48.7321 57.5631 49.1781 57.9453C49.624 58.3281 50.2402 58.5189 51.0265 58.5189C52.0592 58.5189 52.8132 58.2287 53.2885 57.6478V54.908C52.8015 54.3457 52.0533 54.0646 51.0441 54.0646C50.246 54.0646 49.624 54.2575 49.1781 54.6434C48.7321 55.0293 48.5091 55.6008 48.5091 56.3579Z" fill="#E1D5CB"/>
<path d="M78.4743 13.2286L78.5183 13.8902C79.2166 13.3756 80.1584 13.1184 81.3437 13.1184C82.6758 13.1184 83.5823 13.4381 84.0636 14.0776C84.3804 13.791 84.7912 13.5594 85.2958 13.383C85.8063 13.2066 86.4078 13.1184 87.1002 13.1184C89.1892 13.1184 90.2514 13.8112 90.2866 15.1967V19.1935H88.6581V15.2573C88.6581 14.831 88.5026 14.5131 88.1917 14.3036C87.8806 14.0905 87.3584 13.9839 86.6249 13.9839C86.0205 13.9839 85.5188 14.0978 85.1198 14.3257C84.7207 14.5499 84.489 14.8531 84.4244 15.2353V19.1935H82.7873V15.2849C82.7873 14.4176 82.1095 13.9839 80.754 13.9839C79.686 13.9839 78.9555 14.2687 78.5624 14.8384V19.1935H76.934V13.2286H78.4743ZM92.32 16.1559C92.32 15.5716 92.502 15.046 92.8653 14.5793C93.2348 14.1125 93.7458 13.7523 94.3966 13.4988C95.0546 13.2452 95.8027 13.1184 96.6418 13.1184C97.9379 13.1184 98.9861 13.3995 99.7838 13.9618C100.588 14.5241 100.99 15.2721 100.99 16.2056V16.2773C100.99 16.8579 100.81 17.3798 100.453 17.8429C100.101 18.3023 99.5927 18.6606 98.9302 18.9179C98.2732 19.1751 97.516 19.3038 96.6589 19.3038C95.3682 19.3038 94.3209 19.0227 93.5169 18.4603C92.7183 17.898 92.32 17.1538 92.32 16.2276V16.1559ZM93.9568 16.2773C93.9568 16.9388 94.2001 17.4698 94.6877 17.8704C95.1807 18.2711 95.8378 18.4714 96.6589 18.4714C97.4863 18.4714 98.1434 18.2692 98.631 17.865C99.1177 17.457 99.361 16.8873 99.361 16.1559C99.361 15.5018 99.1123 14.9725 98.613 14.5682C98.1199 14.1603 97.4629 13.9564 96.6418 13.9564C95.8378 13.9564 95.1889 14.1566 94.6958 14.5572C94.2037 14.9578 93.9568 15.5312 93.9568 16.2773ZM106.033 17.8098L108.392 13.2286H110.055L106.64 19.1935H105.399L101.949 13.2286H103.613L106.033 17.8098ZM113.392 19.1935H111.763V13.2286H113.392V19.1935ZM111.632 11.6465C111.632 11.4811 111.71 11.3414 111.869 11.2275C112.033 11.1135 112.273 11.0565 112.591 11.0565C112.908 11.0565 113.148 11.1135 113.313 11.2275C113.477 11.3414 113.559 11.4811 113.559 11.6465C113.559 11.8118 113.477 11.9497 113.313 12.0599C113.148 12.1702 112.908 12.2253 112.591 12.2253C112.273 12.2253 112.033 12.1702 111.869 12.0599C111.71 11.9497 111.632 11.8118 111.632 11.6465ZM119.958 19.3038C118.667 19.3038 117.616 19.0392 116.807 18.51C115.997 17.9771 115.592 17.2659 115.592 16.3765V16.189C115.592 15.5973 115.771 15.0699 116.129 14.6068C116.492 14.1401 116.997 13.7762 117.642 13.5153C118.294 13.2507 118.998 13.1184 119.755 13.1184C120.994 13.1184 121.956 13.3738 122.642 13.8847C123.329 14.3955 123.672 15.1269 123.672 16.0788V16.5033H117.221C117.244 17.0913 117.516 17.5672 118.039 17.9311C118.567 18.2913 119.236 18.4714 120.045 18.4714C120.62 18.4714 121.108 18.3979 121.507 18.2509C121.906 18.1039 122.255 17.909 122.555 17.6665L123.549 18.1516C122.751 18.9198 121.554 19.3038 119.958 19.3038ZM119.755 13.9564C119.098 13.9564 118.546 14.107 118.1 14.4084C117.654 14.7061 117.378 15.1251 117.273 15.6653H122.044V15.5881C121.997 15.0699 121.774 14.6693 121.375 14.3863C120.976 14.0997 120.436 13.9564 119.755 13.9564Z" fill="#E1D5CB"/>
</svg>
