<svg width="30" height="29" viewBox="0 0 30 29" fill="none" xmlns="http://www.w3.org/2000/svg">
<g clip-path="url(#clip0)">
<path d="M21.9533 10.6184C22.3433 11.2059 23.2695 11.1094 23.5209 10.4616L24.5739 7.74864L27.5198 7.03588C28.2245 6.86541 28.4186 5.99763 27.8475 5.569L25.461 3.77785L25.6589 0.891919C25.7063 0.201569 24.8988 -0.242163 24.2938 0.142089L21.7658 1.74811L18.9422 0.677299C18.267 0.421038 17.5737 1.0145 17.7709 1.68071L18.5951 4.46447L16.6521 6.68859C16.1873 7.22046 16.5664 8.03121 17.2932 8.05859L20.3305 8.17303L21.9533 10.6184ZM20.4123 4.43414L19.9456 2.85805L21.5443 3.46428C21.8129 3.56624 22.117 3.5358 22.3577 3.38295L23.789 2.47369L23.677 4.10758C23.6581 4.38224 23.7825 4.64809 24.0096 4.8185L25.3609 5.83257L23.693 6.23611C23.4126 6.30395 23.1853 6.49867 23.0851 6.75682L22.4889 8.29283L21.5701 6.90834C21.4157 6.67566 21.1508 6.53011 20.8618 6.51924L19.1421 6.45446L20.2422 5.19523C20.4271 4.98368 20.4907 4.69904 20.4123 4.43414Z" fill="#47152F"/>
<path d="M29.1205 13.4917H22.031C21.5456 13.4917 21.1521 13.866 21.1521 14.3278V16.8364H15.0001C14.5147 16.8364 14.1212 17.2107 14.1212 17.6725V20.1811H7.96913C7.48376 20.1811 7.09026 20.5555 7.09026 21.0172V23.5258H0.879599C0.39423 23.5258 0.000732422 23.9002 0.000732422 24.362V27.7067C0.000732422 28.1685 0.39423 28.5428 0.879599 28.5428H29.1205C29.6059 28.5428 29.9994 28.1685 29.9994 27.7067V14.3278C29.9994 13.866 29.6059 13.4917 29.1205 13.4917ZM1.75847 25.1981H7.09026V26.8705H1.75847V25.1981ZM8.84799 21.8534H14.1212V26.8705H8.84799V21.8534ZM15.8789 18.5087H21.1521V26.8705H15.8789V18.5087ZM28.2417 26.8705H22.9099V15.164H28.2417V26.8705Z" fill="#47152F"/>
<path d="M17.6367 10.9831C17.6367 11.4442 17.2424 11.8193 16.7578 11.8193H13.2424C11.7885 11.8193 10.6058 12.9446 10.6058 14.3278C10.6058 14.7889 10.2115 15.164 9.7269 15.164H6.21143C4.75761 15.164 3.57483 16.2893 3.57483 17.6725C3.57483 18.1343 3.96833 18.5087 4.4537 18.5087C4.93907 18.5087 5.33256 18.1343 5.33256 17.6725C5.33256 17.2115 5.72682 16.8363 6.21143 16.8363H9.7269C11.1807 16.8363 12.3635 15.711 12.3635 14.3278C12.3635 13.8667 12.7578 13.4916 13.2424 13.4916H16.7578C18.2117 13.4916 19.3944 12.3663 19.3944 10.9831C19.3944 10.5213 19.0009 10.1469 18.5156 10.1469C18.0302 10.1469 17.6367 10.5213 17.6367 10.9831Z" fill="#47152F"/>
</g>
<defs>
<clipPath id="clip0">
<rect width="30" height="28.5429" fill="white"/>
</clipPath>
</defs>
</svg>
